<svg width="24" height="24" viewBox="0 0 24 24" fill="none" xmlns="http://www.w3.org/2000/svg">
<mask id="mask0_631_18841" style="mask-type:alpha" maskUnits="userSpaceOnUse" x="0" y="0" width="24" height="24">
<rect width="24" height="24" fill="#D9D9D9"/>
</mask>
<g mask="url(#mask0_631_18841)">
<path d="M9.28238 17.2449C9.47065 17.415 9.68482 17.5 9.92491 17.5C10.0417 17.5 10.1548 17.4781 10.2644 17.4343C10.3739 17.3905 10.4766 17.3215 10.5723 17.2275L14.7383 13.1359C14.8341 13.0418 14.9016 12.9426 14.941 12.8382C14.9803 12.7339 15 12.6211 15 12.5C15 12.3789 14.9803 12.2661 14.941 12.1618C14.9016 12.0574 14.8341 11.9582 14.7383 11.8641L10.5723 7.77252C10.4766 7.67846 10.3739 7.60952 10.2644 7.5657C10.1548 7.5219 10.0417 7.5 9.92491 7.5C9.68482 7.5 9.47065 7.58504 9.28238 7.75513C9.09413 7.9252 9 8.1481 9 8.42385V16.5761C9 16.8519 9.09413 17.0748 9.28238 17.2449Z" fill="#0E2259"/>
</g>
</svg>
