<svg width="18" height="19" viewBox="0 0 18 19" fill="none" xmlns="http://www.w3.org/2000/svg">
<mask id="mask0_630_12367" style="mask-type:alpha" maskUnits="userSpaceOnUse" x="0" y="0" width="18" height="19">
<rect x="18" y="0.5" width="18" height="18" transform="rotate(90 18 0.5)" fill="#D9D9D9"/>
</mask>
<g mask="url(#mask0_630_12367)">
<path d="M4.25513 6.78238C4.08504 6.97065 4 7.18482 4 7.42491C4 7.54167 4.0219 7.65482 4.0657 7.76436C4.10952 7.8739 4.17846 7.97656 4.27252 8.07232L8.36414 12.2383C8.45819 12.3341 8.55741 12.4016 8.66178 12.441C8.76614 12.4803 8.87888 12.5 9 12.5C9.12112 12.5 9.23386 12.4803 9.33822 12.441C9.44259 12.4016 9.54181 12.3341 9.63586 12.2383L13.7275 8.07232C13.8215 7.97656 13.8905 7.8739 13.9343 7.76436C13.9781 7.65482 14 7.54167 14 7.42491C14 7.18482 13.915 6.97065 13.7449 6.78238C13.5748 6.59413 13.3519 6.5 13.0761 6.5L4.92385 6.5C4.6481 6.5 4.4252 6.59413 4.25513 6.78238Z" fill="#493CE7"/>
</g>
</svg>
