<svg width="21" height="20" viewBox="0 0 21 20" fill="none" xmlns="http://www.w3.org/2000/svg">
<path d="M2.16699 6.98086C2.16699 6.68892 2.16699 6.54296 2.17917 6.42001C2.29666 5.23423 3.23472 4.29617 4.4205 4.17869C4.54345 4.1665 4.69729 4.1665 5.00498 4.1665C5.12354 4.1665 5.18282 4.1665 5.23315 4.16346C5.87583 4.12453 6.43862 3.7189 6.67878 3.1215C6.69759 3.07472 6.71517 3.02198 6.75033 2.9165C6.78548 2.81103 6.80306 2.75829 6.82187 2.71151C7.06203 2.11411 7.62482 1.70848 8.2675 1.66955C8.31784 1.6665 8.37343 1.6665 8.48461 1.6665H12.516C12.6272 1.6665 12.6828 1.6665 12.7331 1.66955C13.3758 1.70848 13.9386 2.11411 14.1788 2.71151C14.1976 2.75829 14.2152 2.81103 14.2503 2.9165C14.2855 3.02198 14.3031 3.07472 14.3219 3.1215C14.562 3.7189 15.1248 4.12453 15.7675 4.16346C15.8178 4.1665 15.8771 4.1665 15.9957 4.1665C16.3034 4.1665 16.4572 4.1665 16.5802 4.17869C17.7659 4.29617 18.704 5.23423 18.8215 6.42001C18.8337 6.54296 18.8337 6.68892 18.8337 6.98086V13.4998C18.8337 14.9 18.8337 15.6 18.5612 16.1348C18.3215 16.6052 17.939 16.9877 17.4686 17.2274C16.9339 17.4998 16.2338 17.4998 14.8337 17.4998H6.16699C4.76686 17.4998 4.0668 17.4998 3.53202 17.2274C3.06161 16.9877 2.67916 16.6052 2.43948 16.1348C2.16699 15.6 2.16699 14.9 2.16699 13.4998V6.98086Z" stroke="#475467" stroke-width="1.66667" stroke-linecap="round" stroke-linejoin="round"/>
<path d="M10.5003 13.7498C12.3413 13.7498 13.8337 12.2575 13.8337 10.4165C13.8337 8.57555 12.3413 7.08317 10.5003 7.08317C8.65938 7.08317 7.16699 8.57555 7.16699 10.4165C7.16699 12.2575 8.65938 13.7498 10.5003 13.7498Z" stroke="#475467" stroke-width="1.66667" stroke-linecap="round" stroke-linejoin="round"/>
</svg>
