<svg width="201" height="49" viewBox="0 0 201 49" fill="none" xmlns="http://www.w3.org/2000/svg">
<g filter="url(#filter0_dd_630_12341)">
<g clip-path="url(#clip0_630_12341)">
<path d="M3 15.3C3 10.8196 3 8.57937 3.87195 6.86808C4.63893 5.36278 5.86278 4.13893 7.36808 3.37195C9.07937 2.5 11.3196 2.5 15.8 2.5H32.2C36.6804 2.5 38.9206 2.5 40.6319 3.37195C42.1372 4.13893 43.3611 5.36278 44.1281 6.86808C45 8.57937 45 10.8196 45 15.3V31.7C45 36.1804 45 38.4206 44.1281 40.1319C43.3611 41.6372 42.1372 42.8611 40.6319 43.6281C38.9206 44.5 36.6804 44.5 32.2 44.5H15.8C11.3196 44.5 9.07937 44.5 7.36808 43.6281C5.86278 42.8611 4.63893 41.6372 3.87195 40.1319C3 38.4206 3 36.1804 3 31.7V15.3Z" fill="white"/>
<path d="M3 15.3C3 10.8196 3 8.57937 3.87195 6.86808C4.63893 5.36278 5.86278 4.13893 7.36808 3.37195C9.07937 2.5 11.3196 2.5 15.8 2.5H32.2C36.6804 2.5 38.9206 2.5 40.6319 3.37195C42.1372 4.13893 43.3611 5.36278 44.1281 6.86808C45 8.57937 45 10.8196 45 15.3V31.7C45 36.1804 45 38.4206 44.1281 40.1319C43.3611 41.6372 42.1372 42.8611 40.6319 43.6281C38.9206 44.5 36.6804 44.5 32.2 44.5H15.8C11.3196 44.5 9.07937 44.5 7.36808 43.6281C5.86278 42.8611 4.63893 41.6372 3.87195 40.1319C3 38.4206 3 36.1804 3 31.7V15.3Z" fill="url(#paint0_linear_630_12341)"/>
<path fill-rule="evenodd" clip-rule="evenodd" d="M24.0002 5.17598C13.8801 5.17598 5.67616 13.3799 5.67616 23.5C5.67616 33.6201 13.8801 41.824 24.0002 41.824C34.1203 41.824 42.3242 33.6201 42.3242 23.5C42.3242 13.3799 34.1203 5.17598 24.0002 5.17598ZM5.57422 23.5C5.57422 13.3236 13.8238 5.07404 24.0002 5.07404C34.1766 5.07404 42.4262 13.3236 42.4262 23.5C42.4262 33.6764 34.1766 41.926 24.0002 41.926C13.8238 41.926 5.57422 33.6764 5.57422 23.5Z" fill="#95999E"/>
<path fill-rule="evenodd" clip-rule="evenodd" d="M24 18.3522C21.1568 18.3522 18.8519 20.6571 18.8519 23.5003C18.8519 26.3435 21.1568 28.6484 24 28.6484C26.8432 28.6484 29.1481 26.3435 29.1481 23.5003C29.1481 20.6571 26.8432 18.3522 24 18.3522ZM18.75 23.5003C18.75 20.6008 21.1005 18.2503 24 18.2503C26.8995 18.2503 29.25 20.6008 29.25 23.5003C29.25 26.3998 26.8995 28.7503 24 28.7503C21.1005 28.7503 18.75 26.3998 18.75 23.5003Z" fill="#95999E"/>
<path fill-rule="evenodd" clip-rule="evenodd" d="M23.9998 19.9826C22.0574 19.9826 20.4828 21.5572 20.4828 23.4996C20.4828 25.442 22.0574 27.0166 23.9998 27.0166C25.9422 27.0166 27.5168 25.442 27.5168 23.4996C27.5168 21.5572 25.9422 19.9826 23.9998 19.9826ZM20.3809 23.4996C20.3809 21.5009 22.0011 19.8807 23.9998 19.8807C25.9985 19.8807 27.6187 21.5009 27.6187 23.4996C27.6187 25.4983 25.9985 27.1185 23.9998 27.1185C22.0011 27.1185 20.3809 25.4983 20.3809 23.4996Z" fill="#95999E"/>
<path d="M23.9492 2.5H24.0512V44.5H23.9492V2.5Z" fill="#95999E"/>
<path d="M45 23.4487L45 23.5507L3 23.5507L3 23.4487L45 23.4487Z" fill="#95999E"/>
<path d="M37.915 2.5H38.017V44.5H37.915V2.5Z" fill="#95999E"/>
<path d="M16.9658 2.5H17.0678V44.5H16.9658V2.5Z" fill="#95999E"/>
<path d="M30.9321 2.5H31.0341V44.5H30.9321V2.5Z" fill="#95999E"/>
<path d="M9.98291 2.5H10.0849V44.5H9.98291V2.5Z" fill="#95999E"/>
<path d="M45 37.4146L45 37.5165L3 37.5165L3 37.4145L45 37.4146Z" fill="#95999E"/>
<path d="M45 16.4658L45 16.5678L3 16.5678L3 16.4658L45 16.4658Z" fill="#95999E"/>
<path d="M45 30.4316L45 30.5336L3 30.5336L3 30.4316L45 30.4316Z" fill="#95999E"/>
<path d="M45 9.48291L45 9.58485L3 9.58485L3 9.48291L45 9.48291Z" fill="#95999E"/>
<g filter="url(#filter1_dd_630_12341)">
<circle cx="24" cy="23.5" r="10.5" fill="url(#paint1_linear_630_12341)"/>
</g>
<g filter="url(#filter2_b_630_12341)">
<path d="M3 23.5H45V31.7C45 36.1804 45 38.4206 44.1281 40.1319C43.3611 41.6372 42.1372 42.8611 40.6319 43.6281C38.9206 44.5 36.6804 44.5 32.2 44.5H15.8C11.3196 44.5 9.07937 44.5 7.36808 43.6281C5.86278 42.8611 4.63893 41.6372 3.87195 40.1319C3 38.4206 3 36.1804 3 31.7V23.5Z" fill="white" fill-opacity="0.2"/>
</g>
</g>
<path d="M3.1 15.3C3.1 13.0581 3.10008 11.3828 3.20866 10.0538C3.31715 8.72593 3.53345 7.75268 3.96105 6.91348C4.71845 5.42699 5.92699 4.21845 7.41348 3.46105C8.25268 3.03345 9.22593 2.81715 10.5538 2.70866C11.8828 2.60008 13.5581 2.6 15.8 2.6H32.2C34.4419 2.6 36.1172 2.60008 37.4462 2.70866C38.7741 2.81715 39.7473 3.03345 40.5865 3.46105C42.073 4.21845 43.2816 5.42699 44.039 6.91348C44.4665 7.75268 44.6828 8.72593 44.7913 10.0538C44.8999 11.3828 44.9 13.0581 44.9 15.3V31.7C44.9 33.9419 44.8999 35.6172 44.7913 36.9462C44.6828 38.2741 44.4665 39.2473 44.039 40.0865C43.2816 41.573 42.073 42.7816 40.5865 43.539C39.7473 43.9665 38.7741 44.1828 37.4462 44.2913C36.1172 44.3999 34.4419 44.4 32.2 44.4H15.8C13.5581 44.4 11.8828 44.3999 10.5538 44.2913C9.22593 44.1828 8.25268 43.9665 7.41348 43.539C5.92699 42.7816 4.71845 41.573 3.96105 40.0865C3.53345 39.2473 3.31715 38.2741 3.20866 36.9462C3.10008 35.6172 3.1 33.9419 3.1 31.7V15.3Z" stroke="#95999E" stroke-width="0.2"/>
</g>
<path d="M60.277 32V15.1273H72.0418V18.4392H64.3551V21.8994H71.4403V25.2196H64.3551V28.6881H72.0418V32H60.277ZM74.3057 32V19.3455H78.1367V21.6688H78.2768C78.5404 20.8998 78.9853 20.2929 79.6114 19.848C80.2376 19.4031 80.9845 19.1807 81.8523 19.1807C82.7311 19.1807 83.4836 19.4059 84.1097 19.8563C84.7359 20.3066 85.1341 20.9108 85.3043 21.6688H85.4361C85.6723 20.9163 86.1337 20.3149 86.8202 19.8645C87.5068 19.4086 88.3169 19.1807 89.2506 19.1807C90.448 19.1807 91.4201 19.5652 92.1671 20.3341C92.9141 21.0975 93.2876 22.1466 93.2876 23.4813V32H89.2589V24.404C89.2589 23.7723 89.0968 23.2918 88.7728 22.9622C88.4487 22.6272 88.0286 22.4597 87.5123 22.4597C86.9575 22.4597 86.5209 22.6409 86.2023 23.0034C85.8893 23.3604 85.7327 23.841 85.7327 24.4452V32H81.8606V24.3628C81.8606 23.7751 81.7013 23.311 81.3827 22.9705C81.0642 22.6299 80.644 22.4597 80.1222 22.4597C79.7707 22.4597 79.4604 22.5448 79.1912 22.7151C78.9221 22.8798 78.7107 23.116 78.5569 23.4236C78.4086 23.7312 78.3344 24.0937 78.3344 24.5111V32H74.3057ZM99.0612 32.2142C98.2538 32.2142 97.537 32.0796 96.9109 31.8105C96.2903 31.5359 95.7987 31.124 95.4362 30.5747C95.0792 30.02 94.9007 29.3252 94.9007 28.4903C94.9007 27.7873 95.0243 27.1941 95.2714 26.7108C95.5186 26.2275 95.8591 25.8348 96.293 25.5327C96.7269 25.2306 97.2267 25.0027 97.7924 24.8489C98.3582 24.6896 98.9623 24.5825 99.6049 24.5276C100.324 24.4616 100.904 24.393 101.343 24.3216C101.783 24.2447 102.101 24.1376 102.299 24.0003C102.502 23.8575 102.604 23.657 102.604 23.3989V23.3577C102.604 22.9348 102.458 22.608 102.167 22.3773C101.876 22.1466 101.483 22.0313 100.989 22.0313C100.456 22.0313 100.028 22.1466 99.7038 22.3773C99.3798 22.608 99.1738 22.9265 99.0859 23.333L95.3703 23.2011C95.4801 22.4322 95.763 21.7456 96.2189 21.1415C96.6802 20.5318 97.3119 20.054 98.1137 19.708C98.9211 19.3564 99.8905 19.1807 101.022 19.1807C101.829 19.1807 102.574 19.2768 103.255 19.469C103.936 19.6558 104.529 19.9304 105.034 20.2929C105.54 20.6499 105.929 21.0893 106.204 21.6111C106.484 22.1329 106.624 22.7288 106.624 23.3989V32H102.834V30.2369H102.736C102.51 30.6653 102.222 31.0278 101.871 31.3244C101.525 31.621 101.115 31.8435 100.643 31.9918C100.176 32.1401 99.6489 32.2142 99.0612 32.2142ZM100.305 29.5778C100.739 29.5778 101.129 29.49 101.475 29.3142C101.827 29.1384 102.107 28.8968 102.315 28.5892C102.524 28.2761 102.629 27.9136 102.629 27.5017V26.2989C102.513 26.3593 102.373 26.4142 102.208 26.4636C102.049 26.5131 101.873 26.5598 101.681 26.6037C101.489 26.6476 101.291 26.6861 101.088 26.719C100.885 26.752 100.69 26.7822 100.503 26.8097C100.124 26.8701 99.7999 26.9634 99.5308 27.0898C99.2672 27.2161 99.0639 27.3809 98.9211 27.5841C98.7838 27.7818 98.7152 28.018 98.7152 28.2926C98.7152 28.71 98.8635 29.0286 99.1601 29.2483C99.4621 29.468 99.8439 29.5778 100.305 29.5778ZM114.696 37.0091C113.494 37.0091 112.464 36.8416 111.607 36.5065C110.75 36.1715 110.077 35.7129 109.589 35.1307C109.1 34.5485 108.806 33.8894 108.707 33.1534L112.521 32.9392C112.593 33.1973 112.725 33.4225 112.917 33.6148C113.115 33.807 113.37 33.9553 113.683 34.0597C114.002 34.164 114.375 34.2162 114.804 34.2162C115.479 34.2162 116.037 34.0514 116.476 33.7219C116.921 33.3978 117.143 32.8294 117.143 32.0165V29.792H117.003C116.844 30.182 116.602 30.5308 116.278 30.8384C115.954 31.1459 115.551 31.3876 115.067 31.5634C114.589 31.7391 114.04 31.827 113.419 31.827C112.497 31.827 111.651 31.6128 110.882 31.1844C110.119 30.7505 109.506 30.0804 109.045 29.1741C108.589 28.2624 108.361 27.0898 108.361 25.6563C108.361 24.1788 108.597 22.9622 109.069 22.0065C109.542 21.0454 110.16 20.3341 110.923 19.8727C111.692 19.4114 112.519 19.1807 113.403 19.1807C114.068 19.1807 114.636 19.296 115.108 19.5267C115.586 19.7519 115.979 20.043 116.287 20.4C116.594 20.757 116.828 21.1277 116.987 21.5122H117.102V19.3455H121.114V32.0494C121.114 33.1205 120.845 34.024 120.307 34.7599C119.769 35.4959 119.016 36.0534 118.05 36.4324C117.083 36.8169 115.965 37.0091 114.696 37.0091ZM114.82 28.894C115.309 28.894 115.726 28.765 116.072 28.5068C116.418 28.2487 116.685 27.8779 116.871 27.3946C117.058 26.9113 117.152 26.3318 117.152 25.6563C117.152 24.9697 117.058 24.3793 116.871 23.8849C116.69 23.3851 116.424 23.0007 116.072 22.7315C115.726 22.4624 115.309 22.3278 114.82 22.3278C114.32 22.3278 113.897 22.4652 113.551 22.7398C113.205 23.0144 112.942 23.4016 112.76 23.9014C112.585 24.3957 112.497 24.9807 112.497 25.6563C112.497 26.3318 112.587 26.9113 112.769 27.3946C112.95 27.8779 113.211 28.2487 113.551 28.5068C113.897 28.765 114.32 28.894 114.82 28.894ZM123.393 32V19.3455H127.421V32H123.393ZM125.411 17.8707C124.846 17.8707 124.359 17.684 123.953 17.3105C123.547 16.9315 123.343 16.4757 123.343 15.9429C123.343 15.4156 123.547 14.9652 123.953 14.5918C124.359 14.2128 124.846 14.0233 125.411 14.0233C125.982 14.0233 126.469 14.2128 126.869 14.5918C127.276 14.9652 127.479 15.4156 127.479 15.9429C127.479 16.4757 127.276 16.9315 126.869 17.3105C126.469 17.684 125.982 17.8707 125.411 17.8707ZM135.603 32.2389C134.268 32.2389 133.123 31.9643 132.167 31.4151C131.217 30.8658 130.487 30.1024 129.976 29.1247C129.465 28.1416 129.21 27.0046 129.21 25.7139C129.21 24.4177 129.465 23.2808 129.976 22.3031C130.492 21.32 131.225 20.5538 132.176 20.0045C133.131 19.4553 134.271 19.1807 135.595 19.1807C136.764 19.1807 137.783 19.3921 138.651 19.8151C139.524 20.238 140.205 20.8366 140.694 21.6111C141.189 22.38 141.45 23.2835 141.477 24.3216H137.712C137.635 23.6735 137.415 23.1654 137.053 22.7974C136.696 22.4295 136.229 22.2455 135.652 22.2455C135.185 22.2455 134.776 22.3773 134.425 22.6409C134.073 22.8991 133.799 23.2835 133.601 23.7943C133.409 24.2996 133.312 24.9258 133.312 25.6727C133.312 26.4197 133.409 27.0513 133.601 27.5676C133.799 28.0784 134.073 28.4656 134.425 28.7293C134.776 28.9874 135.185 29.1165 135.652 29.1165C136.026 29.1165 136.355 29.0368 136.641 28.8776C136.932 28.7183 137.171 28.4848 137.358 28.1773C137.544 27.8642 137.662 27.4852 137.712 27.0403H141.477C141.439 28.0839 141.178 28.9956 140.694 29.7756C140.216 30.5555 139.544 31.1624 138.676 31.5963C137.814 32.0247 136.789 32.2389 135.603 32.2389ZM153.858 32.2389C152.535 32.2389 151.392 31.978 150.431 31.4563C149.475 30.929 148.739 30.1793 148.223 29.2071C147.712 28.2295 147.457 27.0678 147.457 25.7222C147.457 24.415 147.715 23.2725 148.231 22.2949C148.748 21.3117 149.475 20.5483 150.415 20.0045C151.354 19.4553 152.461 19.1807 153.735 19.1807C154.636 19.1807 155.459 19.3207 156.206 19.6009C156.953 19.881 157.599 20.2956 158.143 20.8449C158.686 21.3941 159.109 22.0724 159.411 22.8798C159.713 23.6817 159.864 24.6017 159.864 25.6398V26.6449H148.866V24.3051H156.116C156.11 23.8767 156.009 23.495 155.811 23.1599C155.613 22.8249 155.341 22.564 154.995 22.3773C154.655 22.185 154.262 22.0889 153.817 22.0889C153.367 22.0889 152.963 22.1905 152.606 22.3938C152.249 22.5915 151.966 22.8634 151.758 23.2094C151.549 23.5499 151.439 23.9371 151.428 24.371V26.752C151.428 27.2683 151.53 27.7214 151.733 28.1114C151.936 28.4958 152.224 28.7952 152.598 29.0094C152.971 29.2236 153.416 29.3307 153.933 29.3307C154.29 29.3307 154.614 29.2813 154.905 29.1824C155.196 29.0835 155.446 28.938 155.654 28.7457C155.863 28.5535 156.02 28.3173 156.124 28.0372L159.823 28.1443C159.669 28.9737 159.332 29.6959 158.81 30.3111C158.294 30.9207 157.615 31.3958 156.775 31.7364C155.935 32.0714 154.962 32.2389 153.858 32.2389ZM163.755 36.7455C163.272 36.7455 162.816 36.707 162.388 36.6301C161.959 36.5587 161.591 36.4626 161.284 36.3418L162.174 33.417C162.569 33.5489 162.926 33.6258 163.245 33.6477C163.569 33.6697 163.846 33.6175 164.077 33.4912C164.313 33.3704 164.494 33.1534 164.621 32.8403L164.777 32.4614L160.279 19.3455H164.497L166.829 28.375H166.96L169.325 19.3455H173.568L168.798 33.2111C168.567 33.9031 168.24 34.5128 167.817 35.0401C167.4 35.5728 166.859 35.9902 166.194 36.2923C165.535 36.5944 164.722 36.7455 163.755 36.7455ZM180.33 32.2389C179.006 32.2389 177.864 31.978 176.903 31.4563C175.947 30.929 175.211 30.1793 174.695 29.2071C174.184 28.2295 173.929 27.0678 173.929 25.7222C173.929 24.415 174.187 23.2725 174.703 22.2949C175.219 21.3117 175.947 20.5483 176.886 20.0045C177.825 19.4553 178.932 19.1807 180.206 19.1807C181.107 19.1807 181.931 19.3207 182.678 19.6009C183.425 19.881 184.07 20.2956 184.614 20.8449C185.158 21.3941 185.581 22.0724 185.883 22.8798C186.185 23.6817 186.336 24.6017 186.336 25.6398V26.6449H175.337V24.3051H182.587C182.582 23.8767 182.48 23.495 182.283 23.1599C182.085 22.8249 181.813 22.564 181.467 22.3773C181.126 22.185 180.734 22.0889 180.289 22.0889C179.838 22.0889 179.435 22.1905 179.078 22.3938C178.721 22.5915 178.438 22.8634 178.229 23.2094C178.02 23.5499 177.911 23.9371 177.9 24.371V26.752C177.9 27.2683 178.001 27.7214 178.204 28.1114C178.408 28.4958 178.696 28.7952 179.069 29.0094C179.443 29.2236 179.888 29.3307 180.404 29.3307C180.761 29.3307 181.085 29.2813 181.376 29.1824C181.667 29.0835 181.917 28.938 182.126 28.7457C182.335 28.5535 182.491 28.3173 182.596 28.0372L186.295 28.1443C186.141 28.9737 185.803 29.6959 185.281 30.3111C184.765 30.9207 184.087 31.3958 183.246 31.7364C182.406 32.0714 181.434 32.2389 180.33 32.2389ZM199.152 23.2094L195.452 23.3082C195.414 23.0446 195.31 22.8112 195.139 22.608C194.969 22.3992 194.747 22.2372 194.472 22.1219C194.203 22.001 193.89 21.9406 193.533 21.9406C193.066 21.9406 192.668 22.034 192.338 22.2207C192.014 22.4075 191.855 22.6601 191.86 22.9787C191.855 23.2259 191.954 23.4401 192.157 23.6213C192.366 23.8026 192.736 23.9481 193.269 24.058L195.708 24.5193C196.971 24.761 197.91 25.1619 198.525 25.7222C199.146 26.2824 199.459 27.0239 199.465 27.9466C199.459 28.8144 199.201 29.5696 198.69 30.2122C198.185 30.8548 197.493 31.3546 196.614 31.7116C195.735 32.0632 194.73 32.2389 193.599 32.2389C191.792 32.2389 190.366 31.8682 189.323 31.1267C188.285 30.3797 187.692 29.3801 187.543 28.1278L191.523 28.029C191.61 28.4903 191.838 28.8419 192.206 29.0835C192.574 29.3252 193.044 29.446 193.615 29.446C194.131 29.446 194.552 29.3499 194.876 29.1577C195.2 28.9654 195.365 28.71 195.37 28.3915C195.365 28.1059 195.238 27.8779 194.991 27.7077C194.744 27.5319 194.357 27.3946 193.829 27.2957L191.621 26.8756C190.353 26.6449 189.408 26.2192 188.787 25.5986C188.167 24.9724 187.859 24.176 187.865 23.2094C187.859 22.3635 188.084 21.6413 188.54 21.0426C188.996 20.4384 189.644 19.9771 190.485 19.6585C191.325 19.34 192.316 19.1807 193.459 19.1807C195.172 19.1807 196.523 19.5404 197.512 20.2599C198.501 20.974 199.047 21.9571 199.152 23.2094Z" fill="#0F172A"/>
<defs>
<filter id="filter0_dd_630_12341" x="0" y="0.5" width="48" height="48" filterUnits="userSpaceOnUse" color-interpolation-filters="sRGB">
<feFlood flood-opacity="0" result="BackgroundImageFix"/>
<feColorMatrix in="SourceAlpha" type="matrix" values="0 0 0 0 0 0 0 0 0 0 0 0 0 0 0 0 0 0 127 0" result="hardAlpha"/>
<feOffset dy="1"/>
<feGaussianBlur stdDeviation="1"/>
<feColorMatrix type="matrix" values="0 0 0 0 0.0627451 0 0 0 0 0.0941176 0 0 0 0 0.156863 0 0 0 0.06 0"/>
<feBlend mode="normal" in2="BackgroundImageFix" result="effect1_dropShadow_630_12341"/>
<feColorMatrix in="SourceAlpha" type="matrix" values="0 0 0 0 0 0 0 0 0 0 0 0 0 0 0 0 0 0 127 0" result="hardAlpha"/>
<feOffset dy="1"/>
<feGaussianBlur stdDeviation="1.5"/>
<feColorMatrix type="matrix" values="0 0 0 0 0.0627451 0 0 0 0 0.0941176 0 0 0 0 0.156863 0 0 0 0.1 0"/>
<feBlend mode="normal" in2="effect1_dropShadow_630_12341" result="effect2_dropShadow_630_12341"/>
<feBlend mode="normal" in="SourceGraphic" in2="effect2_dropShadow_630_12341" result="shape"/>
</filter>
<filter id="filter1_dd_630_12341" x="10.5" y="11" width="27" height="27" filterUnits="userSpaceOnUse" color-interpolation-filters="sRGB">
<feFlood flood-opacity="0" result="BackgroundImageFix"/>
<feColorMatrix in="SourceAlpha" type="matrix" values="0 0 0 0 0 0 0 0 0 0 0 0 0 0 0 0 0 0 127 0" result="hardAlpha"/>
<feOffset dy="1"/>
<feGaussianBlur stdDeviation="1"/>
<feColorMatrix type="matrix" values="0 0 0 0 0.0627451 0 0 0 0 0.0941176 0 0 0 0 0.156863 0 0 0 0.06 0"/>
<feBlend mode="normal" in2="BackgroundImageFix" result="effect1_dropShadow_630_12341"/>
<feColorMatrix in="SourceAlpha" type="matrix" values="0 0 0 0 0 0 0 0 0 0 0 0 0 0 0 0 0 0 127 0" result="hardAlpha"/>
<feOffset dy="1"/>
<feGaussianBlur stdDeviation="1.5"/>
<feColorMatrix type="matrix" values="0 0 0 0 0.0627451 0 0 0 0 0.0941176 0 0 0 0 0.156863 0 0 0 0.1 0"/>
<feBlend mode="normal" in2="effect1_dropShadow_630_12341" result="effect2_dropShadow_630_12341"/>
<feBlend mode="normal" in="SourceGraphic" in2="effect2_dropShadow_630_12341" result="shape"/>
</filter>
<filter id="filter2_b_630_12341" x="-2" y="18.5" width="52" height="31" filterUnits="userSpaceOnUse" color-interpolation-filters="sRGB">
<feFlood flood-opacity="0" result="BackgroundImageFix"/>
<feGaussianBlur in="BackgroundImageFix" stdDeviation="2.5"/>
<feComposite in2="SourceAlpha" operator="in" result="effect1_backgroundBlur_630_12341"/>
<feBlend mode="normal" in="SourceGraphic" in2="effect1_backgroundBlur_630_12341" result="shape"/>
</filter>
<linearGradient id="paint0_linear_630_12341" x1="24" y1="2.5" x2="24" y2="44.5" gradientUnits="userSpaceOnUse">
<stop stop-color="white"/>
<stop offset="1" stop-color="#D0D5DD"/>
</linearGradient>
<linearGradient id="paint1_linear_630_12341" x1="18.75" y1="34" x2="29.25" y2="13" gradientUnits="userSpaceOnUse">
<stop stop-color="#53389E"/>
<stop offset="1" stop-color="#6941C6"/>
</linearGradient>
<clipPath id="clip0_630_12341">
<path d="M3 15.3C3 10.8196 3 8.57937 3.87195 6.86808C4.63893 5.36278 5.86278 4.13893 7.36808 3.37195C9.07937 2.5 11.3196 2.5 15.8 2.5H32.2C36.6804 2.5 38.9206 2.5 40.6319 3.37195C42.1372 4.13893 43.3611 5.36278 44.1281 6.86808C45 8.57937 45 10.8196 45 15.3V31.7C45 36.1804 45 38.4206 44.1281 40.1319C43.3611 41.6372 42.1372 42.8611 40.6319 43.6281C38.9206 44.5 36.6804 44.5 32.2 44.5H15.8C11.3196 44.5 9.07937 44.5 7.36808 43.6281C5.86278 42.8611 4.63893 41.6372 3.87195 40.1319C3 38.4206 3 36.1804 3 31.7V15.3Z" fill="white"/>
</clipPath>
</defs>
</svg>
